<svg xmlns="http://www.w3.org/2000/svg" width="79" height="35" viewBox="0 0 79 35"><g><g><g><g><path d="M20.882 17.782c1.254 1.756 1.818 3.69 1.678 5.845-.07 1.126.066 2.279-.105 3.386-.685 4.333-3.927 7.14-8.523 7.253-4.471.11-8.947.024-13.422.02-.156 0-.312-.05-.502-.086V14.354h1.047c4.086 0 8.172-.04 12.258.015 1.966.027 3.468-.858 3.27-3.297-.051-.61-.009-1.227-.009-1.84-.007-1.9-.957-2.85-2.88-2.858-4.183-.012-8.366-.004-12.55-.004H0V.46C.284.436.533.4.782.398c4.312 0 8.624-.02 12.94.003 4.627.028 8.223 2.913 8.717 7.347.35 3.161.588 6.435-1.627 9.215zm-4.33 4.804c-.048-1.095-.912-2.16-1.982-2.186-2.84-.082-5.685-.028-8.596-.028v7.953c2.763 0 5.42.047 8.07-.015 1.468-.04 2.456-1.014 2.511-2.33z"/></g></g><g><path d="M50.705 26.504c-.167 3.848-3.339 7.677-8.43 7.758-2.455.043-4.965.167-7.358-.26-3.88-.687-6.519-3.972-6.632-7.91-.109-3.778-.023-7.564-.023-11.346 0-.094.047-.183.093-.346h5.873v1.087c0 3.332-.004 6.66.004 9.992 0 1.724.93 2.776 2.627 2.838a72.21 72.21 0 0 0 5.347-.004c1.665-.062 2.568-1.087 2.572-2.768.012-3.332.004-6.664.004-9.992v-1.126h5.853c.031.047.097.097.097.148.008 3.976.148 7.96-.027 11.929"/></g><g><path d="M78.643 34.232h-5.931v-1.115c0-3.296.004-6.593-.004-9.894-.004-1.899-.958-2.881-2.845-2.912a194.734 194.734 0 0 0-4.763 0c-2.028.02-2.974.97-2.977 2.978-.008 3.266-.004 6.532-.004 9.797v1.13H56.25c-.02-.295-.062-.602-.062-.908-.004-3.43-.016-6.858 0-10.287.015-4.997 3.62-8.613 8.631-8.663 1.818-.02 3.631-.031 5.445.008 4.69.093 8.309 3.677 8.37 8.333.047 3.81.009 7.623.009 11.533"/></g><g><path fill="#1bacd6" d="M28.23 6.985h50.42V.39H28.23z"/></g></g></g></svg>