<svg xmlns="http://www.w3.org/2000/svg" width="47" height="22" viewBox="0 0 47 22"><defs><clipPath id="ot01a"><path d="M0 0h13.484v21.166H0z"/></clipPath></defs><g><g><g><g/><g clip-path="url(#ot01a)"><path fill="#fff" d="M12.424 10.85a5.665 5.665 0 0 1 .998 3.645c-.042.702.039 1.422-.063 2.112-.407 2.704-2.336 4.455-5.07 4.525-2.66.068-5.323.015-7.986.012-.092 0-.185-.031-.298-.053V8.71h.622c2.431 0 4.863-.025 7.294.01 1.169.016 2.062-.536 1.944-2.057-.03-.38-.004-.766-.004-1.149-.005-1.184-.57-1.777-1.714-1.782C5.66 3.725 3.17 3.73.681 3.73H0V.043C.169.03.317.007.465.005c2.566 0 5.131-.012 7.699.002 2.753.017 4.892 1.817 5.186 4.583.208 1.972.35 4.014-.968 5.748zm-2.577 2.999c-.028-.685-.542-1.35-1.179-1.367-1.69-.05-3.382-.017-5.114-.017v4.971c1.644 0 3.225.03 4.802-.01.873-.024 1.46-.633 1.493-1.456z"/></g></g><g><path fill="#fff" d="M30.171 16.29c-.1 2.4-1.986 4.79-5.015 4.84-1.46.027-2.954.104-4.378-.162-2.308-.429-3.878-2.478-3.945-4.934-.065-2.357-.014-4.72-.014-7.078 0-.059.028-.114.056-.216h3.493v.678c0 2.079-.002 4.155.003 6.233 0 1.075.553 1.732 1.562 1.77 1.059.04 2.121.042 3.182-.002.99-.039 1.528-.678 1.53-1.727.007-2.078.002-4.157.002-6.233v-.702h3.483c.018.029.057.06.057.092.005 2.48.088 4.966-.016 7.441"/></g><g><path fill="#fff" d="M46.784 21.109h-3.529v-.696c0-2.056.003-4.113-.002-6.172-.002-1.184-.57-1.797-1.692-1.816-.945-.015-1.89-.01-2.834 0-1.207.012-1.77.605-1.772 1.858-.004 2.037-.002 4.074-.002 6.111v.705h-3.491c-.012-.184-.037-.376-.037-.567-.003-2.139-.01-4.278 0-6.417.009-3.117 2.153-5.372 5.135-5.404a96.26 96.26 0 0 1 3.239.005c2.79.058 4.943 2.294 4.98 5.198.028 2.377.005 4.755.005 7.195"/></g><g><path fill="#1bacd6" d="M16.8 4.114h29.997V0H16.8z"/></g></g></g></svg>