<svg xmlns="http://www.w3.org/2000/svg" width="15" height="17" viewBox="0 0 15 17"><defs><linearGradient id="l557a" x1="-1.15" x2="14.7" y1="8.5" y2="8.5" gradientUnits="userSpaceOnUse"><stop offset="0" stop-color="#009fe3"/><stop offset="1" stop-color="#009fe3"/></linearGradient></defs><g><g><path fill="url(#l557a)" d="M14.254 15.5c-.902.676-1.893 1.142-2.979 1.358-3.724.744-7.422-1.491-8.72-5.28-.11-.322-.247-.441-.566-.407-.329.035-.663.016-.994.004C.43 11.155 0 10.687 0 10.111.003 9.53.435 9.067 1 9.05c.33-.01.66-.002 1.01-.002V7.965c-.351 0-.71.014-1.065-.004C.417 7.936 0 7.463 0 6.91c-.003-.565.423-1.046.963-1.068.378-.014.758-.022 1.137.003.244.016.333-.088.418-.317 1.1-2.97 3.103-4.835 6.066-5.4 2.049-.389 3.953.115 5.666 1.386.47.348.59.98.294 1.467-.304.5-.902.65-1.397.304-.721-.504-1.484-.893-2.34-1.04-1.883-.321-3.524.216-4.915 1.604a5.972 5.972 0 0 0-1.203 1.71c-.038.079-.067.161-.114.279h.336c1.366.001 2.731-.005 4.096.003.695.004 1.156.62 1.007 1.316-.105.492-.501.81-1.03.811-1.535.005-3.071.003-4.606.003h-.335v1.077h.322c1.546-.002 3.09-.008 4.636 0 .71.004 1.173.635 1.008 1.34-.112.474-.506.786-1.021.789-1.356.004-2.712.001-4.067.001h-.346c.21.57.51 1.044.861 1.478 1.225 1.513 2.773 2.276 4.657 2.202 1.046-.041 2.006-.391 2.876-1.013.255-.182.518-.341.843-.294.415.059.754.37.855.78.109.445-.04.89-.413 1.17z"/></g></g></svg>