<svg xmlns="http://www.w3.org/2000/svg" width="106" height="106" viewBox="0 0 106 106"><g><g><g><path fill="#fff" d="M60.739 21.152c1.787-1.928 2.762-4.242 2.797-6.893.048-3.792 1.546-6.842 4.617-9.07 1.746-1.264 3.728-1.825 5.898-1.605.166.019.325.057.488.095.054.016.105.06.261.153-.188.226-.325.424-.494.593-1.5 1.507-2.995 3.027-4.521 4.51-.657.633-.947 1.35-.93 2.262.031 1.985.002 3.97.012 5.955.006 1.594.679 2.266 2.26 2.27 2.067.003 4.135-.017 6.203.009.784.01 1.392-.265 1.931-.81 1.539-1.555 3.088-3.1 4.636-4.621.156-.18.322-.321.539-.519.462.772.42 1.519.318 2.288-.538 3.965-2.83 6.61-6.398 8.165A8.78 8.78 0 0 1 75 24.66c-3.558.032-6.496 1.34-8.921 3.891-1.201 1.275-2.485 2.449-3.712 3.729-.367.385-.64.459-1.061.025-1.73-1.772-3.496-3.512-5.248-5.305-.564-.527-.561-.53.022-1.12 1.558-1.573 3.155-3.106 4.659-4.728zM26.947 67.913c-1.548 1.88-2.211 4.087-2.24 6.552-.038 3.349-1.421 6.058-3.96 8.196-1.654 1.396-3.601 2.071-5.747 2.148-.483.016-1-.15-1.461-.23-.029-.089-.054-.181-.08-.27.93-.896 1.87-1.785 2.795-2.687.796-.78 1.574-1.622 2.37-2.358.548-.535.816-1.15.806-1.934-.028-2.11-.006-4.22-.012-6.33-.004-1.395-.701-2.1-2.097-2.106-2.132-.01-4.263.004-6.392-.006-.72-.003-1.313.226-1.829.752-1.52 1.549-3.1 3.075-4.6 4.605-.195.194-.425.354-.635.529-.064-.02-.127-.035-.191-.054-.048-.539-.16-1.084-.137-1.62.169-3.81 2.227-6.42 5.394-8.265 1.568-.915 3.317-1.243 5.069-1.272 3-.048 5.532-1.188 7.645-3.253.873-.851 1.737-1.712 2.587-2.588.329-.338.58-.376.928-.022 1.84 1.826 3.613 3.642 5.442 5.44.398.382.293.62-.042.959-1.223 1.252-2.504 2.463-3.613 3.814zm54.806 1.542c-.354.364-.602.376-.969.01C77.54 66.198 74.277 63 71 59.682a1.531 1.531 0 0 1-.298-.75c-.047-.595-.003-1.197-.022-1.8-.013-.42.16-.611.586-.59.31.017.619.007.93 0 1.199-.025 1.948-.668 1.97-1.847a180.2 180.2 0 0 0 0-6.95C74.144 46.578 73.474 46 72.305 46c-2.305-.072-4.55-.072-6.825 0-1.189 0-1.896.674-1.906 1.856a367.54 367.54 0 0 0 0 6.765c.013 1.15.772 1.88 1.922 1.919.37.012.745.016 1.115.006.389-.013.52.153.513.52-.01.934.029 1.78-.01 2.667-.031.745.255 1.267.765 1.816 3.41 3.397 6.81 6.804 10.213 10.204.675.675.675.672 0 1.345-1.092 1.121-2.247 2.25-3.372 3.371-.156.156-.331.296-.72.602-.58-.697-1.156-1.399-1.79-2.071-2.132-2.132-4.277-4.28-6.437-6.412-.433-.423-.513-.739-.01-1.15.32-.258.6-.57.867-.886.666-.777.692-1.666-.019-2.396a312.628 312.628 0 0 0-5.343-5.341c-.759-.74-1.677-.736-2.435.006-1.833 1.76-3.585 3.538-5.343 5.341-.714.73-.714 1.657-.004 2.39 1.76 1.807 3.514 3.592 5.347 5.35.768.746 1.689.692 2.495-.034.245-.223.472-.462.672-.695.695-.657.714-.66 1.355-.02 1.899 1.9 3.798 3.847 5.645 5.699.781.73 1.508 1.462 2.244 2.148.239.277.417.519.121.828-.784.816-1.574 1.625-2.415 2.492-.57-.555-1.064-1.017-1.533-1.501-1.794-1.819-3.725-3.515-6.063-4.65-2.177-1.054-4.455-1.74-6.883-1.876a91.903 91.903 0 0 1-2.97-.198c-3.69-.322-6.809-1.874-9.412-4.47a6801.291 6801.291 0 0 1-15.954-15.953c-1.6-1.603-1.46-3.863.28-5.099 1.051-.746 2.67-.8 3.648.038 1.189 1.023 2.272 2.167 3.4 3.263.602.587.596.593 1.211-.022.424-.424.848-.852 1.271-1.271.612-.581.612-.581.055-1.205-1.552-1.52-3.069-3.043-4.589-4.563-.717-.717-1.166-1.558-1.09-2.597.093-1.216.679-2.126 1.743-2.68 1.119-.536 2.234-.536 3.28.207.337.257.656.52.933.81 1.44 1.447 2.884 2.851 4.295 4.304.428.44.727.421 1.118-.012.46-.504.947-.985 1.45-1.444.408-.401.364-.644-.016-1.02-2.638-2.616-5.257-5.258-7.895-7.877-.803-.8-1.422-1.65-1.352-2.865.123-1.332.733-2.275 1.925-2.791 1.087-.472 2.198-.434 3.198.36 1 .927 2 1.956 3 2.96 1.92 1.832 3.798 3.735 5.649 5.628.417.427.701.449 1.096.003.45-.513.94-.994 1.44-1.453.405-.346.424-.637.007-1.052-3.32-3.294-6.618-6.587-9.913-9.898-1.59-1.596-1.485-3.785.217-5.057 1.083-.806 2.718-.86 3.747.02 1.096.94 2.106 1.981 3.129 3.004 6.57 6.565 13.137 13.133 19.692 19.713.44.44.742.472 1.156 0 .42-.481.902-.911 1.354-1.367.545-.545.548-.605.013-1.14C68 39 66.458 37.444 64.894 35.883c-.539-.539-.539-.612-.013-1.141.612-.615 1.233-1.22 1.842-1.839.277-.236.452-.354.732-.064 2.116 2.16 4.315 4.331 6.329 6.622 1.44 1.638 1.998 3.735 2.154 5.896.062 1.176.062 2.358.062 3.537-.097 4.461 1.518 8.209 4.685 11.322 1.546 1.52 3.053 3.082 4.61 4.589.437.424.425.691 0 1.103a155.05 155.05 0 0 0-3.542 3.546zM70.686 52.458c.016.372-.143.542-.503.542h-1.36c-1.699 0-1.699 0-1.699-1.725 0-1.842 0-1.848 1.876-1.842 1.906.01 1.67-.213 1.683 1.728.003.433-.016.839.003 1.297zm34.426 20.123c-2.73-2.737-5.468-5.471-8.205-8.205-1.214-1.214-2.431-2.376-3.639-3.643-.583-.586-1.268-.8-2.033-.513-.296.112-.564.338-.8.558-.697.66-1.376 1.342-2.067 2.02-.201-.153-.368-.239-.46-.353-1.736-1.737-3.491-3.445-5.196-5.223-2.027-2.107-3.126-4.627-3.177-7.575-.016-.953.045-1.909-.032-2.852-.118-1.46-.232-2.925-.503-4.356-.481-2.439-1.641-4.503-3.308-6.275C73.886 34.24 72 32.391 70.12 30.53c-.382-.382-.363-.618.074-.915 1.169-.796 2.434-1.296 3.865-1.325 1.942-.038 3.823-.29 5.57-1.036 5.005-2.254 8.176-5.952 8.647-11.622.179-2.154-.401-4.063-1.736-5.783-.924-1.192-2.25-1.352-3.359-.182-1.848 1.95-3.776 3.824-5.69 5.707-.233.23-.584.446-.89.462-1.198.051-2.399.01-3.6.026-.46.006-.609-.188-.6-.634.026-.908.064-1.823-.009-2.728-.067-.841.226-1.425.825-2.001 1.89-1.82 3.725-3.694 5.573-5.555.867-.876.944-1.89.211-2.692C77.728 1 76.23.209 74.488.056 70.444-.304 67 1.082 64.186 3.944 62.348 5.798 61 8 60.49 10.544c-.239 1.188-.366 2.405-.49 3.616-.106 1.986-.858 3.662-2.27 5.06-1.41 1.393-2.816 2.78-4.196 4.22-.427.44-.707.395-1.115-.023a278.315 278.315 0 0 0-5.08-5.085c-1.898-1.84-4.11-2.572-6.751-1.89-3.349.863-5.588 4.503-4.811 7.845.223.713.117.845-.622 1.04-2.584.673-4.687 3.285-4.837 5.971-.089 1.629.38 3.088 1.29 4.49-.267.147-.5.268-.726.398-.513.3-1.083.536-1.532.915-2.059 1.734-2.938 3.899-2.406 6.616.153.777.056.79-.685 1.073-.765.287-1.54.638-2.18 1.135-2.456 1.902-3.26 5.016-2.079 7.884.314.643.193 1.01-.272 1.44a27.673 27.673 0 0 0-2.065 2.055c-1.663 1.865-3.757 2.75-6.245 2.789-2.514.041-4.86.71-6.96 2.1C2.263 65-.14 68.763 0 73.939c.057 1.79.752 3.33 1.902 4.665.994 1.157 2.04 1.18 3.098.102 2-1.937 3.922-3.875 5.853-5.825.331-.335.672-.488 1.147-.475 1 .032 2.071.038 3.103 0 .564-.022.775.156.756.733a47.924 47.924 0 0 0 .003 3.1c.019.562-.16.966-.564 1.365-1.96 1.924-3.872 3.903-5.847 5.815-.778.752-.743 2.03-.144 2.581 1.084 1.116 2.355 1.912 3.856 2.142 3.77.583 7.118-.456 10.011-2.916 1.95-1.66 3.41-3.674 4.26-6.121.566-1.62.8-3.283.845-4.984.038-1.45.44-2.805 1.354-3.907 1.026-1.214 2.192-2.355 3.308-3.515.59-.615.596-.602 1.207 0 2.199 2.164 4.337 4.388 6.609 6.466 2.473 2.262 5.43 3.661 8.743 4.2 1.402.226 2.833.264 4.254.379 2.246.181 4.42.736 6.446 1.804 2.317 1.22 4.047 3.12 5.857 4.93.28.28.143.522-.057.742a81.174 81.174 0 0 0-1.69 1.663c-.949.963-.965 1.868-.057 2.884 1.953 2.233 3.904 4.379 5.854 6.571 2.622 2.948 5.248 5.889 7.893 8.85.525.634 1.194 1.006 2 .707.472-.185.912-.609 1.256-1.023 4.139-4.994 8.256-10.006 12.376-15.012 1.368-1.705 2.82-3.404 4.202-5.128.166-.194.265-.682.166-.732-.755-.746-1.568-1.384-2.406-2.075-5.397 6.551-10.735 13.075-16.148 19.6-3.935-4.429-7.784-8.756-11.646-13.103.2-.248.388-.422.548-.573 2.463-2.47 4.929-4.943 7.395-7.41 5.169-5.171 10.337-10.34 15.505-15.515.344-.344.612-.622 1.106-.121 2.989 3.027 6.003 6.032 9.02 9.034.348.347.39.605.058.994a74.676 74.676 0 0 0-2.502 3.079c-.13.168-.188.611-.08.71.74.676 1.533 1.297 2.413 2.02.166-.22.296-.407.44-.583 1.194-1.453 2.396-2.896 3.584-4.353 1-1.223.953-1.991-.175-3.123m-42.29-7.332c-1 .943-1.92 1.81-2.877 2.751-.81-.842-1.701-1.722-2.692-2.7.866-.838 1.747-1.66 2.562-2.444.098-.09.452-.051.57.057.819.752 1.615 1.536 2.438 2.336"/></g></g></g></svg>