<svg xmlns="http://www.w3.org/2000/svg" width="98" height="94" viewBox="0 0 98 94"><g><g><g><path fill="#fff" d="M98 69.08v22.507C98 93 97.101 94 95.702 94H2.192C.712 93.883 0 93.129 0 91.637V47.312C0 45.765.781 45 2.327 45H7.56c.44 0 .785-.116 1.047-.58C9.122 43.506 9.946 43 11 43a8.87 8.87 0 0 1 1.194-.063c9.525-.003 19.051.01 28.577-.017 1.581-.003 2.98.19 3.771 1.798.069.138.336.216.523.282h50.472c1.013 0 1.82.24 2.245 1.204.149.337.218.796.218 1.127v21.748zM49.065 50c-.003-1-.005-1-.95-1H5.084C4 49 4 49 4 50v38.903c0 .972 0 .975 1 .975h43.14c.92 0 .925-.003.925-.878zm44.863 16.508c0-1.133-.003-1.135-1.16-1.135H54.205c-1.022 0-1.024.002-1.024 1.038v22.51c0 .954.002.957.936.957h38.77c1.038 0 1.041-.003 1.041-1.07zm-.846-5.201c.661 0 .865-.193.86-.859-.03-3.448-.014-6.95-.017-10.448 0-1-.003-1-.983-1H54.117c-.93 0-.936 0-.936.92 0 3.52.014 7.08-.011 10.561-.006.624.168.826.83.826 13-.02 26-.017 39.082 0z"/></g><g><path fill="#fff" d="M50.949 21c.051-1.108-.394-1.898-1.276-2.525-4.151-2.947-8.283-5.925-12.437-8.872-.402-.287-.565-.603-.56-1.08.02-2.025.014-4.05.006-6.074C36.674.875 35.892 0 34.335 0H18.633c-1.57 0-2.358.856-2.363 2.424-.008 1.912-.041 3.823.014 5.732.025.784-.284 1.24-.879 1.684-4.088 2.881-8.143 5.806-12.217 8.706C2.375 19.126 2 19.87 2 20.886v7.04c0 2.074.73 2.757 2.73 2.757 7.27.003 14.463.003 21.694.003 7.3 0 14.576 0 21.897-.003 1.829 0 2.614-.78 2.617-2.588.002-2.37-.025-4.743.01-7.095m-4.098 4.51c-.003 1.046-.003 1.046-1.022 1.05H7.146c-1.04-.004-1.046-.01-1.05-1.028 0-1.105.02-2.21-.007-3.312-.011-.514.17-.854.59-1.152C10.771 18.16 14.84 15.215 19 12.332c1-.724 1.424-1.608 1.383-2.845-.047-1.487.016-3.036-.022-4.555-.017-.646.215-.823.837-.817 3.534.025 7.066.025 10.6 0 .606-.003.799.199.788.795-.033 1.588.011 3.177-.02 4.762-.019 1.105.434 1.903 1.315 2.552C38 15.12 42 18.07 46.14 21c.535.347.745.764.72 1.402-.042 1.036-.011 2.072-.011 3.107"/></g><g><path fill="#fff" d="M63.157 83.543c-.01.931-.333 1.699-1.259 2.105-1.13.492-2.405-.102-2.708-1.304a4.484 4.484 0 0 1-.129-1.088c-.011-3.08-.061-6.16.011-9.256.006-.51.116-1.093.358-1.558.422-.803 1.37-1.102 2.267-.861.813.218 1.44 1.047 1.457 2.038.028 1.677.006 3.381.006 5.033h.005c0 1.63.014 3.262-.008 4.891"/></g><g><path fill="#fff" d="M42.43 53.134c1.57 0 2.357.751 2.36 2.378.006 9.295.006 18.592 0 27.886-.003 1.668-.79 2.417-2.465 2.42H26.49c-5.3 0-10.603 0-15.903-.003-1.642 0-2.421-.752-2.424-2.381-.006-9.32-.006-18.638.003-27.958 0-1.585.743-2.339 2.32-2.342 10.646-.005 21.296-.005 31.942 0zm-1.703 5.013c0-.92-.003-.922-.959-.922H26.482c-4.482 0-8.95.014-13.423-.014-.664-.006-.851.18-.849.848.023 7.593.014 15.183.014 22.776.003.906.006.908.918.908h26.64c.942 0 .945-.002.945-.955z"/></g><g><path fill="#fff" d="M85.451 57.214c-1.261.033-2.526.011-3.787.011h-8.33c-3.97 0-7.94.003-11.912-.003-1.228-.002-1.966-.508-2.27-1.51-.319-1.058.32-2.21 1.394-2.464.33-.077.68-.113 1.02-.113 7.85-.006 15.699-.006 23.547-.003 1.336 0 2.09.467 2.385 1.439.419 1.375-.498 2.604-2.047 2.643"/></g></g></g></svg>