<svg xmlns="http://www.w3.org/2000/svg" width="26" height="25" viewBox="0 0 26 25"><g><g><g><path fill="#fff" d="M13.386 5.833h-.001-.001zm-.001 0c1.811 0 2.038.008 2.75.04.71.033 1.195.146 1.62.31.44.17.81.399 1.181.77.371.37.6.743.77 1.182.164.424.277.909.31 1.62.032.71.04.938.04 2.75s-.008 2.039-.04 2.75c-.033.71-.146 1.195-.31 1.62-.17.438-.399.81-.77 1.182-.37.37-.742.6-1.18.77-.425.165-.91.277-1.62.31-.712.032-.94.04-2.751.04-1.812 0-2.04-.008-2.75-.04-.711-.033-1.196-.145-1.62-.31a3.267 3.267 0 0 1-1.182-.77 3.27 3.27 0 0 1-.77-1.182c-.164-.425-.277-.91-.31-1.62-.032-.711-.04-.938-.04-2.75s.009-2.04.04-2.751c.032-.71.145-1.195.31-1.62.171-.438.4-.81.77-1.181.371-.371.744-.599 1.182-.77.425-.164.91-.277 1.62-.31.711-.032.939-.04 2.75-.04zM13.38 25c6.904 0 12.5-5.596 12.5-12.5S20.284 0 13.38 0 .88 5.596.88 12.5 6.476 25 13.38 25z"/></g><g><path fill="#fff" d="M13.385 9.073a3.423 3.423 0 1 1 0 6.847 3.423 3.423 0 0 1 0-6.847zm3.559-.935a.8.8 0 1 1 0 1.6.8.8 0 0 1 0-1.6zM12.787 7.03c-1.242.001-1.48.01-2.096.037-.65.03-1.003.139-1.238.23a2.07 2.07 0 0 0-.766.5 2.066 2.066 0 0 0-.5.766c-.09.235-.199.588-.229 1.238-.032.703-.038.913-.038 2.693s.006 1.991.038 2.694c.03.65.139 1.003.23 1.238.121.31.265.532.499.766.233.233.455.378.766.498.236.092.588.2 1.238.23.703.032.914.04 2.694.04 1.78 0 1.991-.008 2.694-.04.65-.03 1.003-.138 1.238-.23.311-.12.533-.265.766-.498.234-.233.378-.455.5-.766.09-.235.199-.587.229-1.237.032-.703.039-.914.039-2.694 0-1.779-.007-1.99-.04-2.693-.029-.65-.138-1.002-.229-1.237a2.07 2.07 0 0 0-.499-.767 2.062 2.062 0 0 0-.766-.498c-.235-.092-.588-.2-1.238-.23-.703-.032-.914-.038-2.694-.038h-.598z"/></g><g><path fill="#fff" d="M13.382 10.28a2.222 2.222 0 1 1 0 4.445 2.222 2.222 0 0 1 0-4.445z"/></g></g></g></svg>