<svg width="18" height="18" viewBox="0 0 18 18" fill="none" xmlns="http://www.w3.org/2000/svg">
<mask id="mask0" mask-type="alpha" maskUnits="userSpaceOnUse" x="0" y="0" width="18" height="18">
<rect width="18" height="18" fill="white"/>
</mask>
<g mask="url(#mask0)">
<path fill-rule="evenodd" clip-rule="evenodd" d="M3.75 2.25C2.92275 2.25 2.25 2.92275 2.25 3.75V14.25C2.25 15.0773 2.92275 15.75 3.75 15.75H14.25C15.0773 15.75 15.75 15.0773 15.75 14.25V3.75C15.75 2.92275 15.0773 2.25 14.25 2.25H3.75ZM3.75 3.75H14.25L14.2515 14.25H3.75V3.75ZM6.75 9.75L4.5 12.75H13.5L9.75 7.5L7.5 10.5L6.75 9.75ZM7.5 7.125C7.5 6.50368 6.99632 6 6.375 6C5.75368 6 5.25 6.50368 5.25 7.125C5.25 7.74632 5.75368 8.25 6.375 8.25C6.99632 8.25 7.5 7.74632 7.5 7.125Z" fill="url(#paint0_linear)"/>
</g>
<defs>
<linearGradient id="paint0_linear" x1="1.19145" y1="16.2793" x2="15.75" y2="16.2793" gradientUnits="userSpaceOnUse">
<stop stop-color="#1BACD6"/>
<stop offset="1" stop-color="#3FC453"/>
</linearGradient>
</defs>
</svg>
