<svg xmlns="http://www.w3.org/2000/svg" width="26" height="25" viewBox="0 0 26 25"><g><g><path fill="#fff" d="M14.71 7.618c.403-.141 1.085-.159 1.53-.035.176.053.508.23.744.388l.428.291.472-.15c.263-.08.613-.212.77-.3.149-.08.28-.123.28-.097 0 .15-.324.662-.595.945-.367.397-.262.432.481.167.446-.15.455-.15.367.018-.052.088-.323.397-.612.68-.49.485-.516.538-.516.944 0 .627-.297 1.933-.594 2.648-.551 1.342-1.731 2.728-2.912 3.425-1.661.98-3.873 1.227-5.736.653-.62-.194-1.687-.688-1.687-.776 0-.027.324-.062.717-.071a4.923 4.923 0 0 0 2.343-.653l.472-.283-.542-.185c-.77-.265-1.46-.874-1.635-1.448-.052-.185-.035-.194.455-.194l.507-.009-.428-.203c-.508-.256-.97-.688-1.198-1.13-.166-.317-.376-1.12-.315-1.182.017-.027.201.026.41.097.604.22.683.167.333-.203-.656-.671-.857-1.669-.542-2.613l.149-.424.577.574c1.18 1.156 2.57 1.845 4.162 2.048l.437.053-.026-.433c-.08-1.12.612-2.145 1.705-2.542zM13.38 25c6.904 0 12.5-5.596 12.5-12.5S20.284 0 13.38 0 .88 5.596.88 12.5 6.476 25 13.38 25z"/></g></g></svg>