<svg xmlns="http://www.w3.org/2000/svg" width="26" height="25" viewBox="0 0 26 25"><g><g><g><path fill="#fff" d="M13.784 19.454a7.417 7.417 0 0 1-3.55-.904l-3.937 1.033 1.053-3.851a7.423 7.423 0 0 1-.991-3.716c.002-4.098 3.334-7.433 7.428-7.433 1.987.001 3.852.775 5.254 2.18a7.39 7.39 0 0 1 2.174 5.259c-.002 4.097-3.333 7.43-7.428 7.432zM25.88 12.5c0-6.904-5.596-12.5-12.5-12.5S.88 5.596.88 12.5 6.476 25 13.38 25s12.5-5.596 12.5-12.5z"/></g><g><path fill="#fff" d="M17.434 14.674c-.154.433-.896.83-1.253.883-.32.047-.725.067-1.17-.074-.27-.086-.616-.2-1.059-.391-1.863-.805-3.08-2.68-3.172-2.805-.093-.123-.759-1.007-.759-1.92 0-.915.48-1.364.65-1.55a.682.682 0 0 1 .495-.233c.124 0 .248.002.356.007.114.006.268-.043.418.319.155.372.527 1.286.573 1.379.046.093.077.201.015.325s-.092.202-.185.31c-.093.108-.195.242-.279.325-.093.093-.19.194-.081.38.108.185.48.794 1.033 1.286.71.633 1.308.829 1.493.922.186.093.294.077.403-.047.108-.124.464-.542.588-.728.124-.186.247-.155.418-.093.17.062 1.083.511 1.269.604.186.093.31.14.356.217.046.078.046.45-.109.884zm-6.783 2.665c.949.563 2.036.86 3.145.861h.002a6.187 6.187 0 0 0 6.178-6.178 6.14 6.14 0 0 0-1.808-4.37 6.136 6.136 0 0 0-4.367-1.812 6.187 6.187 0 0 0-6.181 6.177c0 1.168.326 2.305.945 3.288l.146.234-.624 2.28 2.339-.614z"/></g></g></g></svg>