<svg xmlns="http://www.w3.org/2000/svg" width="1440" height="439" viewBox="0 0 1440 439"><g><g clip-path="url(#clip-C2C3843A-005F-4632-B9A6-EB1E2A54A04F)"><path fill="#fff" d="M1440 619h-110.437V408.364c0-25.18-20.435-45.663-45.563-45.663h-100c-25.127 0-45.563 20.484-45.563 45.663V619H1028V408.364c0-29.517 8.283-58.283 24-83.188a156.594 156.594 0 0 1 62.22-56.647C1136 257.56 1159.484 252 1184 252h100c24.517 0 48 5.562 69.782 16.53A156.581 156.581 0 0 1 1416 325.177c15.717 24.904 24 53.67 24 83.187zm-109.36-1H1439V408.356c0-29.356-8.23-57.906-23.798-82.648-15.148-24.074-36.539-43.537-61.863-56.285C1331.692 258.526 1308.369 253 1284 253h-100c-24.37 0-47.691 5.526-69.338 16.422-25.323 12.748-46.715 32.21-61.864 56.285C1037.229 350.449 1029 379 1029 408.357V618h108.36V408.356c0-25.768 20.913-46.731 46.64-46.731h100c25.727 0 46.64 20.963 46.64 46.731zM674 619c-86 0-156-70.144-156-156.364V252h110.437v210.636c0 25.18 20.435 45.663 45.563 45.663h100c25.128 0 45.563-20.484 45.563-45.663V252H930v210.636C930 548.856 860 619 774 619zM519 253v209.644C519 548.307 588.522 618 674 618h100c85.478 0 155-69.693 155-155.356V253H820.64v209.644c0 25.768-20.913 46.731-46.64 46.731H674c-25.727 0-46.64-20.963-46.64-46.731V253zM0 619V252.177h258.055c25.112 0 45.54-20.475 45.54-45.643V152.29c0-25.166-20.428-45.64-45.54-45.64H0V-4h258.055C344-4 414 66.11 414 152.289v54.245c0 21.839-4.439 42.986-13.195 62.853A157.568 157.568 0 0 1 377 307.501c23.846 28.22 37 64.057 37 100.965v54.245C414 548.89 344 619 258.055 619zm1-1h257.068C343.498 618 413 548.35 413 462.738v-54.255c0-36.812-13.175-72.554-37.097-100.64l-.292-.342.292-.342A156.408 156.408 0 0 0 399.89 269c8.7-19.78 13.109-40.788 13.109-62.483v-54.255C413 66.651 343.498-3 258.068-3H1v108.56h257.068c25.697 0 46.604 20.95 46.604 46.702v54.255c0 25.752-20.907 46.704-46.604 46.704H1zm108-108V362h149.24C284 362 305 383 305 408.81v54.38C305 489 284 510 258.24 510zm1-2h148.268C283.485 508 304 487.6 304 462.524v-54.048C304 383.4 283.485 363 258.268 363H110zM518-3h922v111H518zm1 110h920V-2H519z"/></g></g></svg>