<svg xmlns="http://www.w3.org/2000/svg" width="72" height="89" viewBox="0 0 72 89"><defs><clipPath id="a5p0a"><path d="M0 0h72v89H0z"/></clipPath></defs><g><g><g><g/><g clip-path="url(#a5p0a)"><path fill="#fff" d="M71.064 18c.636.648.936 1.38.936 2.291v62.652C72 86.487 69.494 89 66 89H6.084C2.5 89 0 86.487 0 82.901V44.457 6C0 3.374 1.393 1.293 3.824.394A6.243 6.243 0 0 1 5.945 0h45.61c.97 0 1.792.328 2.445 1 5.712 5.693 11.386 11.356 17.064 17zm-16.7-9.557c-.003 2.557-.02 5.145.01 7.714.008.968.626 1.478 1.626 1.48 2.424.013 4.873.007 7.322.004.237 0 .474-.042.729-.066-.252-.8-8.982-9.458-9.6-9.575-.03.162-.087.302-.087.443zm13.129 14.615c0-.923-.04-.96-.984-.962-3.451-.003-6.902.054-10.35-.033-1.066-.063-2.212-.246-3.159-.702-2.213-1.043-3.15-2.989-3.17-5.361-.033-3.474-.01-6.945-.01-10.417 0-1.133-.002-1.136-1.1-1.136-14.101 0-28.202 0-42.303.003-1.567 0-1.951.38-1.951 1.934v76.28c0 1.463.414 1.89 1.849 1.89h59.33c1.355 0 1.848-.486 1.848-1.85z"/></g></g><g><path fill="#fff" d="M36.106 31.457H16.901a2.25 2.25 0 0 1-2.251-2.249C14.65 28 15.658 27 16.9 27h19.206c1.243 0 2.25 1 2.25 2.208a2.25 2.25 0 0 1-2.25 2.249"/></g><g><path fill="#fff" d="M36.106 40.447H16.901a2.25 2.25 0 0 1-2.251-2.249C14.65 37 15.658 36 16.9 36h19.206c1.243 0 2.25 1 2.25 2.198a2.25 2.25 0 0 1-2.25 2.249"/></g><g><path fill="#fff" d="M36.106 49.447H16.901a2.25 2.25 0 0 1-2.251-2.249C14.65 46 15.658 45 16.9 45h19.206c1.243 0 2.25 1 2.25 2.198a2.25 2.25 0 0 1-2.25 2.249"/></g></g></g></svg>