<svg xmlns="http://www.w3.org/2000/svg" width="98" height="94" viewBox="0 0 98 94"><defs><clipPath id="rcz1a"><path d="M0 21.57h45.074V94H0z"/></clipPath><clipPath id="rcz1b"><path d="M51 25.48h47V94H51z"/></clipPath><clipPath id="rcz1c"><path d="M53 0h43.05v41.13H53z"/></clipPath></defs><g><g><g><path fill="#fff" d="M76.426 32.6c.003 1.794 0 3.586 0 5.4.003 1 .003 2.115.003 3.182V38c-.003-1.814 0-3.606-.003-5.4"/></g><g><g/><g clip-path="url(#rcz1a)"><path fill="#fff" d="M13.743 25.48c5.84-.008 11.68-.011 17.519 0 2.738.005 4.804 1.52 5.68 4.03.215.618.308 1.31.308 1.968.022 6.908.016 13.814.014 20.723 0 .628-.074.7-.709.7H8.615c-.728 0-.78-.05-.78-.777-.003-6.826.002-13.653-.003-20.479-.003-2.25.846-4.041 2.757-5.284.956-.62 2.028-.881 3.154-.881zm8.79 64.595c-2.593 0-5.19.003-7.782 0-.751 0-.83-.075-.751-.815.185-.963.347-1.923.526-2.88a1.5 1.5 0 0 1 .277-.618c.082-.11.3-.22.423-.186 3.708.968 7.488.628 11.245.546 1.11-.025 2.212-.365 3.321-.538.149-.022.407.057.467.167.19.354.38.733.448 1.125.151.864.223 1.742.293 2.615.105.509-.103.593-.54.59-2.643-.011-5.285-.006-7.927-.006zM33 79.51c-1.546 1.336-3.356 2.234-5.424 2.491a19.26 19.26 0 0 1-2.868.25 118.91 118.91 0 0 1-5.137.003C15.45 82.157 12.166 80.43 9.815 77c-1.393-2-1.978-4.249-1.98-6.685 0-1.68-.003-3.315 0-5.035.002-.614.035-.645.683-.645 4.664-.002 9.328-.002 13.995-.002 4.648 0 9.298 0 13.946.002.805 0 .81 0 .805.81-.011 1.904.046 3.814-.06 5.715C37 74.518 35.615 77.328 33 79.51zm11.268-23.404c-.65-.968-1.535-1.682-2.59-2.162-.415-.186-.552-.464-.528-.878.011-.197 0-.392 0-.587 0-6.878-.005-13.754.003-20.63.003-1.975-.338-3.848-1.417-5.542-1.98-3.103-4.804-4.722-8.51-4.728-5.79-.008-11.583.009-17.373-.008-2.73-.008-5.076.916-7.007 2.82-2.011 1.987-2.937 4.418-2.923 7.255.077 6.958-.006 13.916.025 20.874.052.801-.1 1.397-.948 1.627-.184.044-.332.17-.478.272C1 55.502-.065 56.876 0 58.863c0 .49.119.987.245 1.465C.695 62 1.797 63.233 3.349 64c.442.224.593.47.59.937-.019 1.743.009 3.488-.01 5.23-.023 1.833.238 3.69.86 5.465.678 1.93 1.653 3.69 3.048 5.17 1.041 1.105 2.236 2.065 3.395 3.122-.291.889-.736 1.838-.898 2.834-.275 1.715-.41 3.457-.53 5.191-.058.82.34 1.515 1.118 1.844.4.207.887.207 1.337.207h20.998c1.337 0 2.078-1.187 2.04-2.152-.107-2.593-.297-5.167-1.384-7.576-.14-.272-.086-.516.208-.735a20.644 20.644 0 0 0 2.23-1.81c2.157-2.02 3.649-4.495 4.302-7.349.347-1.378.415-2.864.478-4.305.08-1.739.006-3.487.036-5.229.003-.25.156-.634.349-.722 1.714-.804 2.862-2.122 3.35-3.901.388-1.44.256-2.845-.598-4.116m-4.76 4.558c-.291.03-.588.027-.882.027-5.364.003-10.732.003-16.099.003-5.463 0-10.93-.006-16.393.005-.865.003-1.56-.233-2-1.034-.596-1.084.044-2.53 1.258-2.766.316-.06.608-.085.97-.085C17.16 56.81 28 56.81 38.758 56.808c.854 0 1.648.126 2.11.943.686 1.249-.003 2.766-1.36 2.912"/></g></g><g><g/><g clip-path="url(#rcz1b)"><path fill="#fff" d="M80.226 61.338c-.145 2.274-.294 4.551-.428 6.826-.236 4.066-.459 8.132-.69 12.199l-.513 8.925c-.044.712-.096.787-.802.787-2.2.003-4.404.003-6.606 0-.72 0-.753-.075-.794-.776-.259-4.407-.525-8.813-.78-13.22-.168-2.894-.314-5.789-.484-8.683-.129-2.017-.26-4.03-.39-6.047-.036-.571.041-.653.62-.653 1.715-.006 3.426-.003 5.14-.003 1.711 0 3.425-.003 5.137.003.535 0 .626.118.59.642m16.418-16.155c-.387-.096-.8-.183-1.2-.183H84.918c-.47 0-.643-.103-.615-.575.03-.485.027-.976-.009-1.425-.08-1.09-.961-1.895-1.986-1.88-1.057.016-1.909.88-1.942 1.933-.013.489-.019.947 0 1.466.014.373-.115.532-.505.481h-2.79c-.583 0-.64 0-.64-.616V38c-.004-1.814 0-3.606-.004-5.4 0-1.048-.14-2.058-.58-3.04-1.905-4.258-7.388-5.444-10.847-2.31-1.782 1.616-2.417 3.685-2.287 6.033.063 1.133.928 2.009 1.994 2 1.06-.008 1.912-.9 1.947-2.044.014-.439-.005-.88.03-1.32.14-1.681 2.055-2.919 3.665-2.422 1.475.45 2.172 1.503 2.18 3.043.02 3.975.003 7.95.014 11.93 0 .43-.186.53-.543.53h-2.885c-.36 0-.5-.1-.489-.454.014-.488.014-.98-.008-1.465-.044-1.018-.684-1.737-1.684-1.932-.854-.149-1.747.272-2.054 1.188-.2.596-.168 1.276-.192 1.918-.028.745-.009.745-.78.745H53.09c-1.494 0-2.472 1.318-2.018 2.682a24.22 24.22 0 0 0 1.024 2.629c1.486 3.21 3.821 5.689 6.829 7.498 1.68 1.024 3.496 1.723 5.397 2.191.31.09.434.246.453.545.03.455.088.875.113 1.314.321 5.644.632 11.29.959 16.934.255 4.36.563 8.717.783 13.077.057 1.13.818 2.13 2.203 2.13h11.305c1.42 0 2.14-.767 2.212-2.174.112-2.297.25-4.588.387-6.881.263-4.05.497-8.1.736-12.15.132-2.227.236-4.458.365-6.686.105-1.822.231-3.644.335-5.463.022-.354.146-.551.522-.646 1.706-.437 3.305-1 4.887-1.916 2.684-1.529 4.867-3.573 6.48-6.215.755-1.243 1.263-2.584 1.777-3.94.47-1.243-.16-2.494-1.195-2.746M92.178 50.4c-1.42 2.17-3.294 3.85-5.618 5.007-1.988.99-4.123 1.397-6.334 1.4-3.818.005-7.636.008-11.454 0C64.482 56.8 60.864 55.238 58 52c-.652-.773-1.18-1.684-1.773-2.537-.068-.102-.088-.236-.164-.463H93c-.309.54-.548 1-.822 1.401"/></g></g><g><g/><g clip-path="url(#rcz1c)"><path fill="#fff" d="M96 40.325c0 .8 0 .8-.777.804-.782 0-1.568.002-2.35-.003-.685-.003-.756-.074-.756-.757 0-8.07-.003-16.136.003-24.203 0-1.726-.212-3.4-.893-5.007C90.249 8.854 88.724 7 86.6 5.707c-1.912-1.19-4-1.767-6.257-1.759C76.328 4 72.315 3.935 68.302 4 65 4 62.21 5.323 60 7.726c-1.405 1.45-2.383 3.134-2.757 5.098a17.075 17.075 0 0 0-.373 3.433c-.03 7.984-.017 15.97-.017 23.955 0 .892-.022.914-.853.917h-2.248C53 41.126 53 41.112 53 40.344V27.289 15.165c0-2.165.538-4.28 1.477-6.253 1.06-2.225 2.601-4.077 4.523-5.6A15.306 15.306 0 0 1 64.14.667C65.463.28 66.817 0 68.22 0h12.726c1.648 0 3.235.4 4.765.95 2.656.954 4.892 2.554 6.7 4.721a15.426 15.426 0 0 1 2.796 4.986c.602 1.778.846 3.594.843 5.465C96 24.192 96 32.258 96 40.325"/></g></g></g></g></svg>