<svg xmlns="http://www.w3.org/2000/svg" width="103" height="89" viewBox="0 0 103 89"><g><g clip-path="url(#clip-CF7F0BDA-13B3-4739-BE51-887D35988B53)"><path fill="#fff" d="M101.632 31.528c-.343-.249-.703-.474-1.054-.704C85.085 20.856 69.579 10.906 54.115.888c-1.85-1.2-3.32-1.173-5.165.018-14.355 9.315-28.765 18.556-43.156 27.816-1.554 1.002-3.13 1.964-4.634 3.03-1.24.88-1.498 2.558-.717 3.805.777 1.233 2.396 1.665 3.77.975.476-.244.92-.532 1.373-.846 1.642-1.049 3.279-2.103 5.11-3.27.05.584.097.804.097 1.066.005 16.22-.004 32.438.018 48.657.005.948-.351 1.169-1.216 1.141-1.498-.05-3.005-.06-4.504.028-1.457.087-2.51 1.233-2.585 2.626-.074 1.454.781 2.636 2.21 2.953C5.234 89 5.785 89 6.321 89h92.957c1.595-.186 2.722-1.428 2.722-2.937-.058-1.532-1.224-2.705-2.847-2.778-1.078-.05-2.153-.018-3.237-.018-1.17-.005-2.345 0-3.533 0V32.424c.476.295.79.488 1.1.686 1.688 1.076 3.349 2.194 5.06 3.229 1.457.883 3.112.524 3.986-.778.878-1.301.471-3.026-.897-4.033M85.085 83.294c-11.172-.05-22.345-.027-33.523-.027-11.172 0-22.345-.02-33.562.022-1.084 0-1.473-.23-1.468-1.449.042-17.327.032-34.655.01-51.982-.005-.92.31-1.445 1.072-1.932A9761.718 9761.718 0 0 0 50.5 6.762c.74-.478 1.28-.538 2.063-.032a7668.114 7668.114 0 0 0 32.88 21.168c.809.52 1.1 1.102 1.1 2.038-.027 17.29-.032 34.582.005 51.868 0 1.14-.26 1.495-1.462 1.49"/></g></g></svg>