<svg width="17" height="17" viewBox="0 0 17 17" fill="none" xmlns="http://www.w3.org/2000/svg">
<path fill-rule="evenodd" clip-rule="evenodd" d="M7.5 5.83333H9.16667V4.16667H7.5V5.83333ZM7.5 12.5H10V10.8333H9.16667V7.5H6.66667V9.16667H7.5V12.5ZM8.33333 0C3.73333 0 0 3.73333 0 8.33333C0 12.9333 3.73333 16.6667 8.33333 16.6667C12.9333 16.6667 16.6667 12.9333 16.6667 8.33333C16.6667 3.73333 12.9333 0 8.33333 0C8.33333 0 3.73333 0 8.33333 0ZM1.66667 8.33333C1.66667 12.0083 4.65833 15 8.33333 15C12.0083 15 15 12.0083 15 8.33333C15 4.65833 12.0083 1.66667 8.33333 1.66667C4.65833 1.66667 1.66667 4.65833 1.66667 8.33333C1.66667 8.33333 1.66667 12.0083 1.66667 8.33333Z" fill="url(#paint0_linear)"/>
<defs>
<linearGradient id="paint0_linear" x1="-1.30685" y1="17.3201" x2="16.6667" y2="17.3201" gradientUnits="userSpaceOnUse">
<stop stop-color="#1BACD6"/>
<stop offset="1" stop-color="#3FC453"/>
</linearGradient>
</defs>
</svg>
