<svg width="12" height="16" viewBox="0 0 12 16" fill="none" xmlns="http://www.w3.org/2000/svg">
<path fill-rule="evenodd" clip-rule="evenodd" d="M6 8.88889C4.57984 8.88889 3.42857 7.69498 3.42857 6.22222C3.42857 4.74946 4.57984 3.55556 6 3.55556C7.42016 3.55556 8.57143 4.74946 8.57143 6.22222C8.57143 7.69498 7.42016 8.88889 6 8.88889ZM0 6.22222C0 10.8889 6 16 6 16C6 16 12 10.8889 12 6.22222C12 2.78222 9.31714 0 6 0C2.68286 0 0 2.78222 0 6.22222C0 6.22222 0 10.8889 0 6.22222ZM6 1.77778C8.37037 1.77778 10.2857 3.76406 10.2857 6.22222C10.2857 7.87617 9.15798 9.893 7.68466 11.721C7.08976 12.4591 6.49135 13.1024 6 13.5977C5.50865 13.1024 4.91024 12.4591 4.31534 11.721C2.84202 9.893 1.71429 7.87617 1.71429 6.22222C1.71429 3.76406 3.62963 1.77778 6 1.77778Z" fill="url(#paint0_linear)"/>
<defs>
<linearGradient id="paint0_linear" x1="-0.940932" y1="16.6273" x2="12" y2="16.6273" gradientUnits="userSpaceOnUse">
<stop stop-color="#009FE3"/>
<stop offset="1" stop-color="#009FE3"/>
</linearGradient>
</defs>
</svg>
