<svg width="16" height="17" viewBox="0 0 16 17" fill="none" xmlns="http://www.w3.org/2000/svg">
<path fill-rule="evenodd" clip-rule="evenodd" d="M6.02148 6.52082C7.27668 6.52082 8.33694 5.6862 8.67757 4.54166H15.9173V2.95832H8.67757C8.33694 1.81378 7.27668 0.979156 6.02148 0.979156C4.4912 0.979156 3.25065 2.2197 3.25065 3.74999C3.25065 5.28028 4.4912 6.52082 6.02148 6.52082C6.02148 6.52082 7.27668 6.52082 6.02148 6.52082ZM7.20898 3.74999C7.20898 4.40583 6.67732 4.93749 6.02148 4.93749C5.36565 4.93749 4.83398 4.40583 4.83398 3.74999C4.83398 3.09415 5.36565 2.56249 6.02148 2.56249C6.67732 2.56249 7.20898 3.09415 7.20898 3.74999C7.20898 3.74999 7.20898 4.40583 7.20898 3.74999ZM11.5632 11.2708C12.8183 11.2708 13.8786 10.4362 14.2192 9.29166H15.9173V7.70832H14.2192C13.8786 6.56378 12.8183 5.72916 11.5632 5.72916C10.0329 5.72916 8.79232 6.9697 8.79232 8.49999C8.79232 10.0303 10.0329 11.2708 11.5632 11.2708C11.5632 11.2708 12.8183 11.2708 11.5632 11.2708ZM11.5632 9.68749C12.219 9.68749 12.7507 9.15583 12.7507 8.49999C12.7507 7.84415 12.219 7.31249 11.5632 7.31249C10.9073 7.31249 10.3757 7.84415 10.3757 8.49999C10.3757 9.15583 10.9073 9.68749 11.5632 9.68749C11.5632 9.68749 12.219 9.68749 11.5632 9.68749ZM4.43815 16.0208C5.96844 16.0208 7.20898 14.7803 7.20898 13.25C7.20898 11.7197 5.96844 10.4792 4.43815 10.4792C3.18296 10.4792 2.1227 11.3138 1.78206 12.4583H0.0839844V14.0417H1.78206C2.1227 15.1862 3.18296 16.0208 4.43815 16.0208C4.43815 16.0208 5.96844 16.0208 4.43815 16.0208ZM4.43815 14.4375C5.09399 14.4375 5.62565 13.9058 5.62565 13.25C5.62565 12.5942 5.09399 12.0625 4.43815 12.0625C3.78231 12.0625 3.25065 12.5942 3.25065 13.25C3.25065 13.9058 3.78231 14.4375 4.43815 14.4375C4.43815 14.4375 5.09399 14.4375 4.43815 14.4375ZM15.9173 12.4583V14.0417H8.00065V12.4583H15.9173ZM0.0839844 7.70832V9.29166H8.00065V7.70832H0.0839844ZM0.0839844 2.95832V4.54166H2.45898V2.95832H0.0839844Z" fill="#1BACD6"/>
</svg>
