<svg width="17" height="17" viewBox="0 0 17 17" fill="none" xmlns="http://www.w3.org/2000/svg">
<path fill-rule="evenodd" clip-rule="evenodd" d="M11.895 9.20672L10.4692 10.6325C9.80816 10.4357 8.57467 9.98846 7.7929 9.20672C7.01112 8.42498 6.56388 7.19154 6.3671 6.53055L7.7929 5.10481C8.14264 4.75508 8.14264 4.18979 7.7929 3.84007L4.21498 0.262295C3.86524 -0.0874318 3.29993 -0.0874318 2.95019 0.262295L0.524359 2.68802C0.184457 3.02791 -0.00696214 3.49481 0.000193695 3.97155C0.0207667 5.24523 0.357986 9.66915 3.84467 13.1557C7.33135 16.6422 11.7554 16.9785 13.0301 17C13.0345 17 13.0506 17 13.0551 17C13.5274 17 13.9738 16.814 14.3119 16.4759L16.7377 14.0501C17.0874 13.7004 17.0874 13.1351 16.7377 12.7854L13.1598 9.20672C12.81 8.85699 12.2447 8.85699 11.895 9.20672ZM5.10477 11.8898C2.09395 8.87914 1.80235 5.04645 1.78446 3.95255L3.57789 2.15919L5.89101 4.47222L4.73445 5.62873C4.52067 5.84161 4.42943 6.1493 4.49115 6.44446C4.51262 6.54732 5.03768 8.98647 6.52252 10.4712C8.00735 11.956 10.4466 12.4811 10.5495 12.5025C10.8473 12.566 11.1523 12.4739 11.3652 12.2601L12.5227 11.1036L14.8358 13.4166L13.0415 15.21C11.9252 15.1912 8.10574 14.8916 5.10477 11.8898Z" fill="url(#paint0_linear)"/>
<defs>
<linearGradient id="paint0_linear" x1="-1.33299" y1="17.6665" x2="17" y2="17.6665" gradientUnits="userSpaceOnUse">
<stop stop-color="#1BACD6"/>
<stop offset="1" stop-color="#3FC453"/>
</linearGradient>
</defs>
</svg>
