<svg width="20" height="19" viewBox="0 0 20 19" fill="none" xmlns="http://www.w3.org/2000/svg">
<mask id="mask0" mask-type="alpha" maskUnits="userSpaceOnUse" x="0" y="0" width="20" height="19">
<rect x="0.5" width="19" height="19" fill="white"/>
</mask>
<g mask="url(#mask0)">
<path fill-rule="evenodd" clip-rule="evenodd" d="M12.3747 4.74992V7.12492H14.7497V8.70825H12.3747V11.0833H10.7913V8.70825H8.41634V7.12492H10.7913V4.74992H12.3747ZM6.83301 1.58325H16.333C17.2062 1.58325 17.9163 2.29338 17.9163 3.16659V12.6666C17.9163 13.5398 17.2062 14.2499 16.333 14.2499H6.83301C5.9598 14.2499 5.24967 13.5398 5.24967 12.6666V3.16659C5.24967 2.29338 5.9598 1.58325 6.83301 1.58325ZM6.83301 3.16659V12.6666H16.3346L16.333 3.16659H6.83301ZM3.66634 6.33325V15.8333H13.1663V17.4166H3.66634C2.79313 17.4166 2.08301 16.7065 2.08301 15.8333V6.33325H3.66634Z" fill="url(#paint0_linear)"/>
</g>
<defs>
<linearGradient id="paint0_linear" x1="0.8415" y1="18.0373" x2="17.9163" y2="18.0373" gradientUnits="userSpaceOnUse">
<stop stop-color="#009FE3"/>
<stop offset="1" stop-color="#009FE3"/>
</linearGradient>
</defs>
</svg>
