<svg xmlns="http://www.w3.org/2000/svg" width="1440" height="623" viewBox="0 0 1440 623"><g><g><path fill="#fff" d="M1440 623h-110.437V412.364c0-25.179-20.435-45.663-45.563-45.663h-100c-25.127 0-45.563 20.484-45.563 45.663V623H1028V412.364c0-29.517 8.283-58.282 24-83.188a156.59 156.59 0 0 1 62.22-56.647C1136 261.56 1159.484 256 1184 256h100c24.517 0 48 5.562 69.782 16.53A156.58 156.58 0 0 1 1416 329.177c15.717 24.905 24 53.67 24 83.187zm-109.36-1H1439V412.356c0-29.356-8.23-57.905-23.798-82.648-15.148-24.075-36.539-43.538-61.863-56.285C1331.692 262.525 1308.369 257 1284 257h-100c-24.37 0-47.691 5.525-69.338 16.422-25.323 12.747-46.715 32.21-61.864 56.285C1037.229 354.449 1029 383 1029 412.356V622h108.36V412.356c0-25.768 20.913-46.731 46.64-46.731h100c25.727 0 46.64 20.963 46.64 46.731zM674 623c-86 0-156-70.145-156-156.364V256h110.437v210.636c0 25.179 20.435 45.663 45.563 45.663h100c25.128 0 45.563-20.484 45.563-45.663V256H930v210.636C930 552.856 860 623 774 623zM519 257v209.644C519 552.307 588.522 622 674 622h100c85.478 0 155-69.693 155-155.356V257H820.64v209.644c0 25.768-20.913 46.731-46.64 46.731H674c-25.727 0-46.64-20.963-46.64-46.731V257zM0 623V256.177h258.055c25.112 0 45.54-20.475 45.54-45.642v-54.246c0-25.166-20.428-45.64-45.54-45.64H0V0h258.055C344 0 414 70.11 414 156.29v54.245c0 21.838-4.439 42.986-13.195 62.852A157.561 157.561 0 0 1 377 311.501c23.846 28.22 37 64.058 37 100.964v54.246C414 552.889 344 623 258.055 623zm1-1h257.068C343.498 622 413 552.35 413 466.738v-54.255c0-36.813-13.175-72.554-37.097-100.64l-.292-.342.292-.342A156.413 156.413 0 0 0 399.89 273c8.7-19.78 13.109-40.788 13.109-62.483v-54.255C413 70.651 343.498 1 258.068 1H1v108.56h257.068c25.697 0 46.604 20.95 46.604 46.702v54.255c0 25.752-20.907 46.704-46.604 46.704H1zm108-108V366h149.24C284 366 305 387 305 412.81v54.38C305 493 284 514 258.24 514zm1-2h148.268C283.485 512 304 491.6 304 466.524v-54.048C304 387.4 283.485 367 258.268 367H110zM518 1h922v111H518zm1 110h920V2H519z"/></g></g></svg>